<svg xmlns="http://www.w3.org/2000/svg" viewBox="0 0 32 32">
  <!-- Markwell's fleuron (the ❊ of the share cards), hand-set: eight teardrop
       petals around a point, in the product teal (the accent token of
       gui/assets/style.css). Presentation attributes only, so there is no
       style for a CSP to strip. -->
  <g fill="#2e7d6b">
    <circle cx="16" cy="16" r="2.3"/>
    <path d="M16 13.8 C14.4 11.6 14.1 7.8 16 3.0 C17.9 7.8 17.6 11.6 16 13.8 Z"/>
    <path d="M16 13.8 C14.4 11.6 14.1 7.8 16 3.0 C17.9 7.8 17.6 11.6 16 13.8 Z" transform="rotate(45 16 16)"/>
    <path d="M16 13.8 C14.4 11.6 14.1 7.8 16 3.0 C17.9 7.8 17.6 11.6 16 13.8 Z" transform="rotate(90 16 16)"/>
    <path d="M16 13.8 C14.4 11.6 14.1 7.8 16 3.0 C17.9 7.8 17.6 11.6 16 13.8 Z" transform="rotate(135 16 16)"/>
    <path d="M16 13.8 C14.4 11.6 14.1 7.8 16 3.0 C17.9 7.8 17.6 11.6 16 13.8 Z" transform="rotate(180 16 16)"/>
    <path d="M16 13.8 C14.4 11.6 14.1 7.8 16 3.0 C17.9 7.8 17.6 11.6 16 13.8 Z" transform="rotate(225 16 16)"/>
    <path d="M16 13.8 C14.4 11.6 14.1 7.8 16 3.0 C17.9 7.8 17.6 11.6 16 13.8 Z" transform="rotate(270 16 16)"/>
    <path d="M16 13.8 C14.4 11.6 14.1 7.8 16 3.0 C17.9 7.8 17.6 11.6 16 13.8 Z" transform="rotate(315 16 16)"/>
  </g>
</svg>
